<svg xmlns="http://www.w3.org/2000/svg" fill-rule="evenodd" stroke-linejoin="round" stroke-miterlimit="2" clip-rule="evenodd" viewBox="0 0 101 101" width="288" height="288">
    <path d="M70.325,49.846l15.654,1.931c1.487,0.184 2.74,1.199 3.227,2.615c0.487,1.417 0.124,2.988 -0.935,4.047l-39.912,39.912c-1.059,1.06 -2.63,1.423 -4.047,0.935c-1.417,-0.487 -2.432,-1.739 -2.615,-3.226l-1.932,-15.655c0.237,0.022 0.475,0.033 0.715,0.033c2.069,0 4.053,-0.822 5.515,-2.284c0,-0 22.078,-22.077 22.078,-22.077c1.463,-1.463 2.285,-3.447 2.285,-5.516c0,-0.24 -0.011,-0.479 -0.033,-0.715Zm-30.482,-26.902l0,13.586c0,5.327 -4.252,9.659 -9.546,9.793l-0.255,0.003c-5.411,0 -9.796,-4.385 -9.796,-9.796l0,-4.71l-5.565,5.564c-4.134,4.135 -4.134,10.837 0,14.971c0,-0 0.001,-0 0.001,0c9.516,9.516 23.04,23.041 23.04,23.041c0.732,0.731 1.724,1.142 2.758,1.142c1.034,0 2.026,-0.411 2.758,-1.142l22.078,-22.077c0.731,-0.731 1.142,-1.723 1.142,-2.758c0,-1.034 -0.411,-2.026 -1.142,-2.758c-0,0 -13.525,-13.525 -23.041,-23.041c-0.738,-0.738 -1.559,-1.344 -2.432,-1.818Zm-0.13,26.697l7.824,7.824c0.765,0.765 2.007,0.765 2.772,0c0.765,-0.765 0.765,-2.007 0,-2.772l-7.824,-7.824c-0.765,-0.765 -2.007,-0.765 -2.772,0c-0.765,0.765 -0.765,2.007 0,2.772Zm5.404,-5.404l7.824,7.824c0.765,0.765 2.007,0.765 2.772,0c0.765,-0.765 0.765,-2.007 0,-2.772l-7.824,-7.824c-0.765,-0.765 -2.007,-0.765 -2.772,0c-0.765,0.765 -0.765,2.007 0,2.772Zm-15.075,-1.811l0.156,-0.002c3.186,-0.08 5.745,-2.688 5.745,-5.894c0,0 0,-32.63 0,-32.63c0,-1.325 -1.074,-2.4 -2.4,-2.4l-6.997,0c-1.325,0 -2.4,1.075 -2.4,2.4l0,32.63c0,3.257 2.639,5.896 5.896,5.896Z" fill="#3A11E6" class="color000 svgShape"></path>
</svg>